<?xml version="1.0" encoding="UTF-8" standalone="no"?>
<svg
   version="1.1"
   width="457"
   height="157"
   id="svg70"
   sodipodi:docname="logo.svg"
   inkscape:version="1.2.2 (b0a84865, 2022-12-01)"
   xmlns:inkscape="http://www.inkscape.org/namespaces/inkscape"
   xmlns:sodipodi="http://sodipodi.sourceforge.net/DTD/sodipodi-0.dtd"
   xmlns="http://www.w3.org/2000/svg"
   xmlns:svg="http://www.w3.org/2000/svg">
  <defs
     id="defs74" />
  <sodipodi:namedview
     id="namedview72"
     pagecolor="#ffffff"
     bordercolor="#000000"
     borderopacity="0.25"
     inkscape:showpageshadow="2"
     inkscape:pageopacity="0.0"
     inkscape:pagecheckerboard="0"
     inkscape:deskcolor="#d1d1d1"
     showgrid="false"
     inkscape:zoom="2.0454785"
     inkscape:cx="246.886"
     inkscape:cy="71.1325"
     inkscape:window-width="1440"
     inkscape:window-height="783"
     inkscape:window-x="0"
     inkscape:window-y="25"
     inkscape:window-maximized="0"
     inkscape:current-layer="svg70" />
  <g
     id="g1636"
     style="fill:#e9876a;fill-opacity:1">
    <path
       d="M0 0 C0.98548828 -0.04962891 1.97097656 -0.09925781 2.98632812 -0.15039062 C10.0618886 -0.25018026 10.0618886 -0.25018026 13.05712891 1.91235352 C14.63809906 3.71115406 15.91740937 5.53371251 17.1875 7.5625 C17.59266846 8.14201416 17.99783691 8.72152832 18.4152832 9.31860352 C19.62939425 11.06393469 20.78661521 12.83744537 21.9375 14.625 C25.72887013 20.41648467 29.65509772 26.0836668 33.70678711 31.69555664 C36.49367496 35.56392336 39.17091338 39.48291968 41.73828125 43.5 C43.7168693 46.31588811 45.98429476 48.91865371 48.1875 51.5625 C48.5175 35.0625 48.8475 18.5625 49.1875 1.5625 C60.07694443 0.00686508 71.19562708 1.13973566 82.1875 1.5625 C82.1875 38.1925 82.1875 74.8225 82.1875 112.5625 C75.5875 112.5625 68.9875 112.5625 62.1875 112.5625 C56.56522194 105.81576633 56.56522194 105.81576633 54.42578125 102.75 C53.95180908 102.07420898 53.47783691 101.39841797 52.98950195 100.70214844 C52.49796631 99.99606445 52.00643066 99.28998047 51.5 98.5625 C50.43786616 97.04661838 49.37536066 95.5309971 48.3125 94.015625 C47.7865625 93.26474609 47.260625 92.51386719 46.71875 91.74023438 C43.78696979 87.57067451 40.80730334 83.43545168 37.83203125 79.296875 C33.88579838 73.76449286 30.04840689 68.15455562 26.1875 62.5625 C26.18972061 63.14687836 26.19194122 63.73125671 26.19422913 64.33334351 C26.21630388 70.39995718 26.2314158 76.46655949 26.24243164 82.53320312 C26.24746926 84.79915836 26.25429952 87.06511033 26.26293945 89.33105469 C26.27502996 92.58269047 26.28073392 95.83428339 26.28515625 99.0859375 C26.29289818 100.61255508 26.29289818 100.61255508 26.30079651 102.17001343 C26.30087204 103.11083771 26.30094757 104.05166199 26.30102539 105.02099609 C26.303246 105.85150482 26.30546661 106.68201355 26.30775452 107.53768921 C26.1875 109.5625 26.1875 109.5625 25.1875 111.5625 C20.80946815 111.73000929 16.43125401 111.89057935 12.05273438 112.04467773 C10.56275558 112.09810003 9.07284391 112.15342962 7.58300781 112.21069336 C5.44350663 112.29259836 3.30385907 112.36767709 1.1640625 112.44140625 C-0.76832275 112.51210327 -0.76832275 112.51210327 -2.73974609 112.58422852 C-5.8125 112.5625 -5.8125 112.5625 -7.8125 111.5625 C-7.80464478 109.64002441 -7.80464478 109.64002441 -7.79663086 107.67871094 C-7.77852793 102.92269591 -7.76704858 98.16668392 -7.75756836 93.41064453 C-7.75254027 91.35237109 -7.74571694 89.29410122 -7.73706055 87.23583984 C-7.72492834 84.27700926 -7.71925643 81.31822592 -7.71484375 78.359375 C-7.70968246 77.43944763 -7.70452118 76.51952026 -7.69920349 75.57171631 C-7.69909019 74.28083099 -7.69909019 74.28083099 -7.69897461 72.96386719 C-7.696754 72.20885925 -7.69453339 71.45385132 -7.69224548 70.67596436 C-7.81474025 68.5231277 -8.22121581 66.63169263 -8.8125 64.5625 C-14.7524101 73.29841984 -20.43717226 82.1424765 -25.89550781 91.1875 C-28.90054767 96.142046 -32.04495664 100.94076603 -35.47265625 105.6171875 C-37.05922958 107.82422661 -37.05922958 107.82422661 -38.8125 111.5625 C-59.6025 112.0575 -59.6025 112.0575 -80.8125 112.5625 C-81.1425 111.9025 -81.4725 111.2425 -81.8125 110.5625 C-80.73046875 108.48828125 -80.73046875 108.48828125 -79 105.875 C-78.34902344 104.88242188 -77.69804687 103.88984375 -77.02734375 102.8671875 C-75.52180125 100.6208225 -74.01425775 98.37593378 -72.50390625 96.1328125 C-71.68969492 94.92215013 -70.8759046 93.71120453 -70.0625 92.5 C-69.6404126 91.8716626 -69.2183252 91.2433252 -68.78344727 90.59594727 C-65.05382707 85.00465228 -61.54402581 79.29242372 -58.06396484 73.54345703 C-54.6711205 67.94425232 -51.19902919 62.40044527 -47.6875 56.875 C-42.9482304 49.40894424 -38.35957722 41.86574633 -33.83300781 34.26953125 C-30.8816834 29.33277041 -27.86818505 24.43521938 -24.8125 19.5625 C-24.3602002 18.8411084 -23.90790039 18.1197168 -23.44189453 17.37646484 C-21.96921131 15.03749738 -20.48618995 12.70540461 -19 10.375 C-18.53158691 9.63137207 -18.06317383 8.88774414 -17.58056641 8.12158203 C-17.13503418 7.42790527 -16.68950195 6.73422852 -16.23046875 6.01953125 C-15.63915161 5.0910437 -15.63915161 5.0910437 -15.03588867 4.14379883 C-11.18133565 -0.83842825 -5.70471045 0.0848147 0 0 Z "
       fill="#222F3A"
       transform="translate(208.8125,24.4375)"
       id="path2"
       style="fill:#e9876a;fill-opacity:1" />
    <path
       d="M0 0 C1 2 1 2 0.36328125 4.27734375 C0.01652344 5.15519531 -0.33023438 6.03304687 -0.6875 6.9375 C-1.02136719 7.81277344 -1.35523438 8.68804687 -1.69921875 9.58984375 C-3.14243358 12.26390846 -4.56827148 13.24992898 -7 15 C-8.08832317 16.78413421 -8.08832317 16.78413421 -8.75 18.6875 C-9.1625 19.780625 -9.575 20.87375 -10 22 C-10.66 22 -11.32 22 -12 22 C-12.27585938 22.70511719 -12.55171875 23.41023438 -12.8359375 24.13671875 C-14.02683155 27.0659984 -15.30875136 29.93753586 -16.625 32.8125 C-17.29402344 34.27623047 -17.29402344 34.27623047 -17.9765625 35.76953125 C-18.31429687 36.50558594 -18.65203125 37.24164063 -19 38 C-19.99 38 -20.98 38 -22 38 C-22.66 41.3 -23.32 44.6 -24 48 C-26.475 48.495 -26.475 48.495 -29 49 C-27.24279546 43.89377035 -24.41290721 39.46614556 -21.625 34.875 C-21.09914307 34.00351318 -20.57328613 33.13202637 -20.03149414 32.23413086 C-15.28806847 24.40540144 -10.41269622 16.66220582 -5.49609375 8.94140625 C-3.6169381 5.98785015 -1.78007659 3.01474251 0 0 Z "
       fill="#B3BDC0"
       transform="translate(186,41)"
       id="path10"
       style="fill:#e9876a;fill-opacity:1" />
    <path
       d="M0 0 C0.66 0 1.32 0 2 0 C2 18.15 2 36.3 2 55 C1.01 55 0.02 55 -1 55 C-0.67 36.85 -0.34 18.7 0 0 Z "
       fill="#AEB6BC"
       transform="translate(258,26)"
       id="path12"
       style="fill:#e9876a;fill-opacity:1" />
    <path
       d="M0 0 C3.97482462 1.32494154 4.64280413 3.12470843 6.875 6.625 C9.81539039 11.17121244 12.81604117 15.62205661 16 20 C15.67 20.66 15.34 21.32 15 22 C13.58126158 20.12653773 12.16498375 18.25129507 10.75 16.375 C9.56664062 14.80878906 9.56664062 14.80878906 8.359375 13.2109375 C6.14361047 10.19544339 4.06469609 7.11990055 2 4 C2.00444122 4.58437836 2.00888245 5.16875671 2.01345825 5.77084351 C2.05760762 11.83743858 2.08783134 17.90398823 2.10986328 23.97070312 C2.11993859 26.23667249 2.13359918 28.50262881 2.15087891 30.76855469 C2.17506011 34.02021501 2.18646763 37.27170387 2.1953125 40.5234375 C2.20563507 41.54118256 2.21595764 42.55892761 2.22659302 43.60751343 C2.22674408 44.54833771 2.22689514 45.48916199 2.22705078 46.45849609 C2.231492 47.28900482 2.23593323 48.11951355 2.24050903 48.97518921 C2 51 2 51 0 53 C0 35.51 0 18.02 0 0 Z "
       fill="#BDC2D1"
       transform="translate(233,83)"
       id="path14"
       style="fill:#e9876a;fill-opacity:1" />
    <path
       d="M0 0 C6.6 0 13.2 0 20 0 C20 0.33 20 0.66 20 1 C18.35 1 16.7 1 15 1 C15 1.66 15 2.32 15 3 C14.32453125 2.98839844 13.6490625 2.97679687 12.953125 2.96484375 C12.06109375 2.95582031 11.1690625 2.94679688 10.25 2.9375 C9.36828125 2.92589844 8.4865625 2.91429687 7.578125 2.90234375 C5.2181162 2.99173802 3.25501476 3.33087179 1 4 C0.67 2.68 0.34 1.36 0 0 Z "
       fill="#142029"
       transform="translate(198,26)"
       id="path26"
       style="fill:#e9876a;fill-opacity:1" />
    <path
       d="M0 0 C0.33 0.66 0.66 1.32 1 2 C0.0625 4.125 0.0625 4.125 -1 6 C-1.99 6 -2.98 6 -4 6 C-4.66 9.3 -5.32 12.6 -6 16 C-7.65 16.33 -9.3 16.66 -11 17 C-9.57497833 13.09544063 -7.73347873 9.75164038 -5.5 6.25 C-4.58734375 4.80367188 -4.58734375 4.80367188 -3.65625 3.328125 C-2 1 -2 1 0 0 Z "
       fill="#899096"
       transform="translate(168,73)"
       id="path28"
       style="fill:#e9876a;fill-opacity:1" />
    <path
       d="M0 0 C0 3.92896395 -1.00299863 7.19893228 -2 11 C-3.32 11.33 -4.64 11.66 -6 12 C-6.33 13.65 -6.66 15.3 -7 17 C-7.99 17 -8.98 17 -10 17 C-8.57394582 13.07297642 -6.70550338 9.75380481 -4.4375 6.25 C-3.81746094 5.28578125 -3.19742188 4.3215625 -2.55859375 3.328125 C-1 1 -1 1 0 0 Z "
       fill="#94A1A4"
       transform="translate(148,103)"
       id="path34"
       style="fill:#e9876a;fill-opacity:1" />
    <path
       d="M0 0 C0.33 0.66 0.66 1.32 1 2 C0.22265625 3.7265625 0.22265625 3.7265625 -0.9375 5.625 C-1.618125 6.73875 -2.29875 7.8525 -3 9 C-5.64 8.67 -8.28 8.34 -11 8 C-10.01 7.67 -9.02 7.34 -8 7 C-6.79117904 4.99983534 -6.79117904 4.99983534 -6 3 C-4.68 3.33 -3.36 3.66 -2 4 C-1.34 2.68 -0.68 1.36 0 0 Z "
       fill="#646E77"
       transform="translate(173,127)"
       id="path36"
       style="fill:#e9876a;fill-opacity:1" />
    <path
       d="M0 0 C6.75 1.75 6.75 1.75 9 4 C7.68 4 6.36 4 5 4 C4.67 4.99 4.34 5.98 4 7 C0 2.25 0 2.25 0 0 Z "
       fill="#778088"
       transform="translate(266,129)"
       id="path50"
       style="fill:#e9876a;fill-opacity:1" />
    <path
       d="M0 0 C0.640625 1.80859375 0.640625 1.80859375 1 4 C-1.41728167 7.29018893 -4.03613528 10.19212816 -7 13 C-5.58832253 7.73829306 -3.25149768 4.27828642 0 0 Z "
       fill="#BBC7C9"
       transform="translate(156,90)"
       id="path52"
       style="fill:#e9876a;fill-opacity:1" />
    <path
       d="M0 0 C2.79872437 2.52788007 4.45773019 4.20411134 5 8 C3.02 8.99 3.02 8.99 1 10 C1.020625 9.0925 1.04125 8.185 1.0625 7.25 C1.0110245 4.57327412 0.7784983 2.53011948 0 0 Z "
       fill="#8B9398"
       transform="translate(244,60)"
       id="path58"
       style="fill:#e9876a;fill-opacity:1" />
    <path
       d="M0 0 C0.99 0.33 1.98 0.66 3 1 C3 1.66 3 2.32 3 3 C2.34 3 1.68 3 1 3 C1 6.3 1 9.6 1 13 C0.67 13 0.34 13 0 13 C0 8.71 0 4.42 0 0 Z "
       fill="#A6BAC5"
       transform="translate(233,83)"
       id="path60"
       style="fill:#e9876a;fill-opacity:1" />
  </g>
  <g
     id="g1657">
    <path
       d="M0 0 C5.94684555 1.30540512 9.33484272 4.32671088 13 9 C17.93191659 17.25367018 19.93810991 24.37134416 19 34 C17.33486522 39.89131924 14.60726014 44.03263711 10 48 C9.34 47.67 8.68 47.34 8 47 C8.61488281 46.36384766 8.61488281 46.36384766 9.2421875 45.71484375 C15.13113555 39.30462518 16.46193216 33.38207049 16.23828125 24.765625 C15.48348494 16.00503829 11.67810436 9.74240068 5 4 C3.66878673 3.6582982 2.3358402 3.32314061 1 3 C0.67 2.01 0.34 1.02 0 0 Z "
       fill="#BCC4C8"
       transform="translate(105,29)"
       id="path16"
       style="fill:#222f3a;fill-opacity:1" />
    <path
       d="M0 0 C3.13792313 2.56739165 3.9451916 5.13687692 5 9 C5.265625 12.62109375 5.265625 12.62109375 5.25 16.4375 C5.25515625 17.69433594 5.2603125 18.95117188 5.265625 20.24609375 C4.74825391 27.55776459 2.84569985 31.7717449 -2 37 C-2 34 -2 34 0 30.8125 C3.38865594 24.47666795 2.30415242 16.96171099 2 10 C1.34 9.67 0.68 9.34 0 9 C0.2784375 7.88625 0.2784375 7.88625 0.5625 6.75 C0.99203108 4.05009037 0.85122974 2.55368923 0 0 Z "
       fill="#97A1A7"
       transform="translate(120,88)"
       id="path18"
       style="fill:#222f3a;fill-opacity:1" />
    <g
       id="g1645">
      <path
         d="M0 0 C0.86510696 -0.00309174 1.73021393 -0.00618347 2.62153625 -0.0093689 C4.04601326 -0.00642319 4.04601326 -0.00642319 5.49926758 -0.00341797 C6.97480354 -0.00566879 6.97480354 -0.00566879 8.48014832 -0.00796509 C11.70140569 -0.01033397 14.92255248 -0.00404599 18.14379883 0.00439453 C19.23275452 0.00661011 20.32171021 0.00882568 21.44366455 0.0111084 C28.9480615 0.02911884 36.45211175 0.07119479 43.95629883 0.12939453 C44.82317322 0.13563843 45.69004761 0.14188232 46.58319092 0.14831543 C51.50059338 0.18717252 56.41500673 0.26768238 61.33129883 0.37939453 C62.49040771 0.39341309 63.6495166 0.40743164 64.84375 0.421875 C74.8650837 0.72348286 82.84853662 3.25478299 90.20239258 10.20751953 C96.88796071 17.53335365 99.50492536 25.46287399 99.26098633 35.35595703 C98.51462599 42.14974983 95.88536148 46.61171879 90.76879883 51.06689453 C90.07399414 51.61216797 89.37918945 52.15744141 88.66333008 52.71923828 C86.83401195 54.03667902 86.83401195 54.03667902 85.95629883 56.12939453 C86.51317383 56.21189453 87.07004883 56.29439453 87.64379883 56.37939453 C92.13541004 57.8361333 94.84945453 60.65008496 97.20629883 64.62939453 C99.79245583 69.80170854 100.11462488 73.63627866 100.14379883 79.44189453 C100.15797852 80.71677734 100.1721582 81.99166016 100.18676758 83.30517578 C99.645729 92.28274807 96.14168358 97.84819487 89.95629883 104.12939453 C79.33350952 112.33011159 66.08182581 111.40793149 53.35473633 111.32470703 C51.66509164 111.3209701 49.97544476 111.31812635 48.28579712 111.31613159 C43.8701158 111.30854864 39.4545691 111.28894693 35.03894043 111.26672363 C30.52052633 111.24614928 26.00209017 111.23710525 21.48364258 111.22705078 C12.64113335 111.20569524 3.7987329 111.17162494 -5.04370117 111.12939453 C-5.06703138 96.80445027 -5.08461453 82.47950894 -5.09551334 68.1545496 C-5.10074291 61.50365924 -5.10784189 54.85278667 -5.11914062 48.2019043 C-5.12996688 41.78936576 -5.13597745 35.37683949 -5.13857841 28.96429253 C-5.14043314 26.51175175 -5.14405464 24.05921168 -5.14943123 21.6066761 C-5.15663819 18.18462776 -5.15769226 14.76263082 -5.15722656 11.34057617 C-5.16082184 10.31559021 -5.16441711 9.29060425 -5.16812134 8.23455811 C-5.16674667 7.3076265 -5.16537201 6.38069489 -5.16395569 5.42567444 C-5.16487748 4.61541841 -5.16579927 3.80516237 -5.166749 2.97035313 C-4.93220391 -0.53875223 -3.04596188 0.00318858 0 0 Z M26.95629883 28.12939453 C26.90245362 30.4208074 26.86357796 32.71257641 26.83129883 35.00439453 C26.8080957 36.28056641 26.78489258 37.55673828 26.76098633 38.87158203 C26.59988359 42.21532791 26.59988359 42.21532791 28.95629883 44.12939453 C33.17685942 44.52890069 37.41254077 44.45838254 41.64990234 44.44506836 C43.75061558 44.44192177 45.84990183 44.46531392 47.95043945 44.49072266 C49.29223456 44.49299714 50.63403343 44.49369845 51.97583008 44.49267578 C53.19375244 44.49565674 54.4116748 44.4986377 55.66650391 44.50170898 C60.21123291 43.98737045 62.76709141 42.31860195 65.95629883 39.12939453 C66.37095737 35.39746764 66.61020137 33.07644028 64.43579102 29.92724609 C61.01255948 27.44509987 57.97271544 27.62615972 53.90942383 27.73876953 C53.13822205 27.74442932 52.36702026 27.75008911 51.57244873 27.75592041 C49.11642603 27.77825864 46.66187828 27.82844691 44.20629883 27.87939453 C42.53835119 27.89946299 40.87038062 27.91771316 39.20239258 27.93408203 C35.11979559 27.97811461 31.03829702 28.0471217 26.95629883 28.12939453 Z M26.95629883 69.12939453 C26.90246035 71.58801854 26.86270845 74.04547003 26.83129883 76.50439453 C26.81454102 77.20306641 26.7977832 77.90173828 26.78051758 78.62158203 C26.76285616 80.45836939 26.85326622 82.29541416 26.95629883 84.12939453 C30.43657546 87.60967117 35.5592488 86.43331583 40.26293945 86.45166016 C41.00261963 86.44948486 41.7422998 86.44730957 42.50439453 86.44506836 C44.74992966 86.44192098 46.99413104 86.46531639 49.23950195 86.49072266 C50.672443 86.49299702 52.10538759 86.49369851 53.53833008 86.49267578 C54.8400415 86.49565674 56.14175293 86.4986377 57.48291016 86.50170898 C61.15660266 86.10792385 63.04250671 85.35380045 65.95629883 83.12939453 C67.52565477 79.99068266 67.30830986 77.59083631 66.95629883 74.12939453 C64.21341138 70.45304108 62.76181654 69.25033923 58.17578125 68.56176758 C56.72086982 68.56255212 55.26579479 68.59039083 53.81176758 68.64111328 C52.65708733 68.65172539 52.65708733 68.65172539 51.4790802 68.66255188 C49.0329758 68.69042528 46.58920499 68.75314317 44.14379883 68.81689453 C42.48042056 68.84198686 40.81700621 68.8647984 39.15356445 68.88525391 C35.08691726 68.94022783 31.02200294 69.02644526 26.95629883 69.12939453 Z "
         fill="#212C38"
         transform="translate(25.043701171875,24.87060546875)"
         id="path4" />
      <path
         d="M0 0 C12.21 0 24.42 0 37 0 C37 0.33 37 0.66 37 1 C25.45 1 13.9 1 2 1 C2.33 6.61 2.66 12.22 3 18 C2.01 18 1.02 18 0 18 C0 12.06 0 6.12 0 0 Z "
         fill="#89989D"
         transform="translate(50,93)"
         id="path20"
         style="fill:#24303a;fill-opacity:1" />
      <path
         d="M0 0 C1.875 0.3125 1.875 0.3125 4 1 C6.33909307 4.5086396 6.41291057 5.87089433 6 10 C4.875 12.8125 4.875 12.8125 3 15 C-0.1875 15.8125 -0.1875 15.8125 -3 16 C-2.195625 15.360625 -1.39125 14.72125 -0.5625 14.0625 C1.2750504 12.59396498 1.2750504 12.59396498 3 11 C3.13568319 7.33655389 3.16461426 4.49384279 2 1 C1.34 0.67 0.68 0.34 0 0 Z "
         fill="#CDDADE"
         transform="translate(87,53)"
         id="path40"
         style="fill:#222f3a;fill-opacity:1" />
      <path
         d="M0 0 C-0.6875 2.375 -0.6875 2.375 -2 5 C-4.625 6.3125 -4.625 6.3125 -7 7 C-6.625 4.0625 -6.625 4.0625 -6 1 C-4 0 -4 0 0 0 Z "
         fill="#5A646C"
         transform="translate(117,124)"
         id="path44"
         style="fill:#222f3a;fill-opacity:1" />
      <path
         d="M0 0 C2.95409701 1.37154504 5.44008376 2.98863724 8 5 C7.67 5.66 7.34 6.32 7 7 C6.01 6.67 5.02 6.34 4 6 C3.67 5.34 3.34 4.68 3 4 C0.47266765 3.34444881 0.47266765 3.34444881 -2 3 C-1.34 2.01 -0.68 1.02 0 0 Z "
         fill="#7E8B90"
         transform="translate(112,81)"
         id="path54"
         style="fill:#222f3a;fill-opacity:1" />
      <path
         d="M0 0 C1.65 0.33 3.3 0.66 5 1 C4.67 1.99 4.34 2.98 4 4 C2.02 4.33 0.04 4.66 -2 5 C-2 4.34 -2 3.68 -2 3 C-2.66 2.67 -3.32 2.34 -4 2 C-2.68 2 -1.36 2 0 2 C0 1.34 0 0.68 0 0 Z "
         fill="#41525B"
         transform="translate(100,27)"
         id="path56"
         style="fill:#222f3a;fill-opacity:1" />
      <path
         d="M0 0 C0.99 0.33 1.98 0.66 3 1 C2.34 2.98 1.68 4.96 1 7 C0.01 6.67 -0.98 6.34 -2 6 C-2 5.34 -2 4.68 -2 4 C-1.34 4 -0.68 4 0 4 C0 2.68 0 1.36 0 0 Z "
         fill="#253137"
         transform="translate(119,114)"
         id="path64" />
    </g>
  </g>
  <g
     id="g1622">
    <path
       d="M0 0 C1.88575966 -0.03156422 3.7713231 -0.07924003 5.65625 -0.14355469 C21.1564205 -0.66531293 21.1564205 -0.66531293 25.79492188 1.98852539 C27.64033795 4.05443678 28.88866104 6.08876528 30.21923828 8.51489258 C31.43863563 10.15054407 32.67640676 11.77262398 33.93017578 13.38208008 C35.15526133 15.04861436 36.37659887 16.71791011 37.59423828 18.38989258 C38.22201172 19.24325195 38.84978516 20.09661133 39.49658203 20.97583008 C44.07343152 27.22327906 44.07343152 27.22327906 45.21923828 29.51489258 C45.87923828 29.51489258 46.53923828 29.51489258 47.21923828 29.51489258 C48.80350021 27.65338481 50.26788354 25.78911076 51.71923828 23.82739258 C52.61494032 22.63979355 53.51077776 21.45229662 54.40673828 20.26489258 C54.86822266 19.6487207 55.32970703 19.03254883 55.80517578 18.39770508 C58.08832159 15.35771536 60.40332324 12.34244372 62.71923828 9.32739258 C63.14011719 8.77543213 63.56099609 8.22347168 63.99462891 7.65478516 C68.58295418 1.6649931 68.58295418 1.6649931 71.84277344 0.89599609 C75.65619535 0.46557298 79.41166295 0.38949419 83.24267578 0.41723633 C83.98885162 0.41865128 84.73502747 0.42006622 85.5038147 0.42152405 C87.86733147 0.42708384 90.23075055 0.43962868 92.59423828 0.45239258 C94.20491399 0.45741278 95.81559119 0.46197478 97.42626953 0.46606445 C101.35729627 0.47704007 105.28825076 0.49427662 109.21923828 0.51489258 C109.21923828 4.68478997 109.20393394 5.0305769 106.72705078 7.94848633 C106.19192871 8.59060059 105.65680664 9.23271484 105.10546875 9.89428711 C104.5242627 10.57346191 103.94305664 11.25263672 103.34423828 11.95239258 C102.13972973 13.39524912 100.93661944 14.83927402 99.73486328 16.28442383 C99.13609375 17.00065918 98.53732422 17.71689453 97.92041016 18.45483398 C95.57236659 21.29823117 93.33047612 24.20753555 91.09423828 27.13989258 C87.5612822 31.76789214 84.00196637 36.37256915 80.40673828 40.95239258 C79.96249512 41.51974121 79.51825195 42.08708984 79.06054688 42.67163086 C78.41786865 43.48929932 78.41786865 43.48929932 77.76220703 44.32348633 C77.3476123 44.85441895 76.93301758 45.38535156 76.50585938 45.93237305 C75.62014852 47.02178059 74.69834443 48.08249561 73.74902344 49.11694336 C70.9980807 51.94455479 70.9980807 51.94455479 70.25439453 55.63989258 C73.76892579 62.46975089 78.59706729 68.30145084 83.54077148 74.13745117 C86.40470763 77.51891412 89.11302386 80.96723433 91.73876953 84.53442383 C95.54445236 89.62540323 99.57289256 94.55508264 103.66064453 99.42114258 C104.86527344 100.85973633 104.86527344 100.85973633 106.09423828 102.32739258 C106.83416016 103.20008789 107.57408203 104.0727832 108.33642578 104.97192383 C110.17280372 107.45217702 111.13883435 109.64826465 112.21923828 112.51489258 C106.3661665 112.7133406 100.51507034 112.85813858 94.65942383 112.9543457 C92.66981888 112.99446458 90.68044816 113.04897632 88.69165039 113.1184082 C85.82395631 113.21598298 82.95938872 113.26093116 80.09033203 113.29614258 C79.2077623 113.33743286 78.32519257 113.37872314 77.4158783 113.42126465 C73.61133275 113.4240003 71.19099944 113.30783392 68.17955017 110.85054016 C66.37576723 108.81736443 64.77919964 106.73906816 63.21923828 104.51489258 C62.5433667 103.65532959 61.86749512 102.7957666 61.17114258 101.91015625 C60.63400635 101.17514893 60.09687012 100.4401416 59.54345703 99.68286133 C58.94339844 98.86495117 58.34333984 98.04704102 57.72509766 97.2043457 C57.12503906 96.37870117 56.52498047 95.55305664 55.90673828 94.70239258 C55.28734375 93.85741211 54.66794922 93.01243164 54.02978516 92.1418457 C51.70471874 88.96349758 49.4039438 85.79195086 47.21923828 82.51489258 C46.55923828 82.51489258 45.89923828 82.51489258 45.21923828 82.51489258 C43.47063847 84.70974963 41.83477202 86.9121915 40.21923828 89.20239258 C39.23357031 90.57442924 38.24656202 91.94550388 37.25830078 93.31567383 C36.75588867 94.0138623 36.25347656 94.71205078 35.73583984 95.43139648 C33.41001357 98.62659955 31.00994144 101.76235631 28.59423828 104.88989258 C28.16884766 105.44249756 27.74345703 105.99510254 27.30517578 106.56445312 C24.3626023 110.37152856 24.3626023 110.37152856 23.21923828 111.51489258 C20.11838607 111.67530451 17.03736249 111.7745266 13.93408203 111.83129883 C13.00326309 111.85207993 12.07244415 111.87286102 11.11341858 111.89427185 C8.12793646 111.95987188 5.14236344 112.0187006 2.15673828 112.07739258 C0.13784852 112.12056787 -1.88103192 112.16418183 -3.89990234 112.20825195 C-8.86009469 112.31556387 -13.8203788 112.41680146 -18.78076172 112.51489258 C-18.01932046 107.68073245 -16.06342568 105.07462167 -12.84326172 101.51489258 C-11.83304822 100.36073973 -10.82529246 99.20443171 -9.81982422 98.04614258 C-9.30967773 97.45961914 -8.79953125 96.8730957 -8.27392578 96.26879883 C-5.99301186 93.58958274 -3.84788998 90.81497512 -1.71826172 88.01489258 C-1.3110791 87.4807373 -0.90389648 86.94658203 -0.484375 86.39624023 C0.33840911 85.31448572 1.16018829 84.2319661 1.98095703 83.14868164 C4.07251799 80.38907479 6.17587999 77.63859612 8.28173828 74.88989258 C8.6889209 74.35501221 9.09610352 73.82013184 9.515625 73.26904297 C11.57339788 70.58280185 13.67263972 67.95619272 15.88330078 65.39379883 C17.13240234 63.93780273 17.13240234 63.93780273 18.40673828 62.45239258 C19.16341797 61.59516602 19.92009766 60.73793945 20.69970703 59.85473633 C22.45754975 57.7020161 22.45754975 57.7020161 21.96459961 55.57177734 C21.17569714 53.3947373 20.28578953 52.04174211 18.81298828 50.26489258 C18.32080811 49.66241699 17.82862793 49.05994141 17.3215332 48.43920898 C16.79277588 47.80418457 16.26401855 47.16916016 15.71923828 46.51489258 C14.62010531 45.1697437 13.52246432 43.82337442 12.42626953 42.47583008 C11.88180176 41.80777344 11.33733398 41.1397168 10.77636719 40.45141602 C7.82568444 36.78179928 5.04064578 32.99231039 2.23095703 29.21411133 C-2.91178058 22.31385563 -8.29145852 15.65204127 -13.86279297 9.09301758 C-15.70926802 6.61099408 -16.78999733 4.42952222 -17.78076172 1.51489258 C-14.82217288 -1.44369626 -4.18049941 0.05400506 0 0 Z "
       fill="#24303A"
       transform="translate(317.78076171875,24.485107421875)"
       id="path6" />
    <path
       d="M0 0 C6.22043798 4.79492095 10.81363729 10.34531434 15 17 C15 17.66 15 18.32 15 19 C9.14692822 19.19844802 3.29583206 19.343246 -2.55981445 19.43945312 C-4.5494194 19.479572 -6.53879012 19.53408374 -8.52758789 19.60351562 C-11.39528197 19.7010904 -14.25984956 19.74603859 -17.12890625 19.78125 C-18.01147598 19.82254028 -18.89404572 19.86383057 -19.80335999 19.90637207 C-23.76326393 19.90921944 -26.07516574 19.78212264 -29.16891479 17.16577148 C-30.91605401 15.17955122 -32.50217905 13.17869076 -34 11 C-33.67 10.34 -33.34 9.68 -33 9 C-32.6795874 9.56589844 -32.3591748 10.13179687 -32.02905273 10.71484375 C-29.30088677 14.67044543 -27.31277485 16.7159181 -22.51611328 17.75390625 C-18.34575752 18.0117082 -14.23728707 18.05932369 -10.0625 18 C-8.60088693 18.00810117 -7.13928909 18.01978695 -5.67773438 18.03515625 C-2.11771942 18.06484516 1.44006288 18.04576653 5 18 C5 17.01 5 16.02 5 15 C4.01 14.67 3.02 14.34 2 14 C1.505 13.01 1.505 13.01 1 12 C1.99 11.67 2.98 11.34 4 11 C2.95330847 7.1122886 1.87501642 3.56095555 0 0 Z "
       fill="#7A838A"
       transform="translate(415,118)"
       id="path8"
       style="fill:#24303a;fill-opacity:1" />
    <path
       d="M0 0 C0.66 0 1.32 0 2 0 C4.02625509 2.72905528 5.86951305 5.55709272 7.734375 8.3984375 C10.33280476 11.38215167 12.20129629 12.09916455 16 13 C15.855625 13.804375 15.71125 14.60875 15.5625 15.4375 C16.22305086 20.81627127 19.51779063 24.00256577 23 28 C22.67 28.66 22.34 29.32 22 30 C5.02627021 9.61547344 5.02627021 9.61547344 0 0 Z "
       fill="#A3ADB1"
       transform="translate(314,44)"
       id="path22"
       style="fill:#24303a;fill-opacity:1" />
    <path
       d="M0 0 C0 4.76414632 -1.13003661 8.63675209 -3 13 C-3.33 12.34 -3.66 11.68 -4 11 C-4.66 11 -5.32 11 -6 11 C-6 11.66 -6 12.32 -6 13 C-7.65 13.66 -9.3 14.32 -11 15 C-9.3718356 11.24269753 -6.98598083 8.383177 -4.375 5.25 C-3.55773437 4.26515625 -2.74046875 3.2803125 -1.8984375 2.265625 C-1.27195312 1.51796875 -0.64546875 0.7703125 0 0 Z "
       fill="#838A8F"
       transform="translate(340,82)"
       id="path24"
       style="fill:#24303a;fill-opacity:1" />
    <path
       d="M0 0 C0.66 0.33 1.32 0.66 2 1 C0.02 3.97 0.02 3.97 -2 7 C-1.34 7.66 -0.68 8.32 0 9 C-2.64 9 -5.28 9 -8 9 C-7.6655974 5.90677596 -7.4404882 4.41112232 -5.125 2.25 C-3 1 -3 1 0 0 Z "
       fill="#5F6D6F"
       transform="translate(307,128)"
       id="path30"
       style="fill:#24303a;fill-opacity:1" />
    <path
       d="M0 0 C0 3.16820458 -0.62797454 4.25594908 -2 7 C-2 7.99 -2 8.98 -2 10 C-3.96875 11.82421875 -3.96875 11.82421875 -6.5 13.6875 C-7.75296875 14.62142578 -7.75296875 14.62142578 -9.03125 15.57421875 C-10.00578125 16.27998047 -10.00578125 16.27998047 -11 17 C-11 13.28294034 -10.0552566 12.46298396 -7.75 9.625 C-7.11449219 8.83480469 -6.47898437 8.04460937 -5.82421875 7.23046875 C-5.22222656 6.49441406 -4.62023437 5.75835937 -4 5 C-3.195625 3.989375 -2.39125 2.97875 -1.5625 1.9375 C-1.046875 1.298125 -0.53125 0.65875 0 0 Z "
       fill="#8F9B9F"
       transform="translate(328,97)"
       id="path32"
       style="fill:#24303a;fill-opacity:1" />
    <path
       d="M0 0 C0.66 0 1.32 0 2 0 C3.25664978 2.90600261 4 4.79604584 4 8 C2.02 8 0.04 8 -2 8 C-2.33 6.68 -2.66 5.36 -3 4 C-2.34 4 -1.68 4 -1 4 C-0.67 2.68 -0.34 1.36 0 0 Z "
       fill="#18242F"
       transform="translate(311,123)"
       id="path38"
       style="fill:#24303a;fill-opacity:1" />
    <path
       d="M0 0 C2.31 0.33 4.62 0.66 7 1 C6.67 1.66 6.34 2.32 6 3 C5.34 3 4.68 3 4 3 C4 4.65 4 6.3 4 8 C2.35 6.35 0.7 4.7 -1 3 C-0.67 2.01 -0.34 1.02 0 0 Z "
       fill="#707B81"
       transform="translate(301,25)"
       id="path42"
       style="fill:#24303a;fill-opacity:1" />
    <path
       d="M0 0 C3.26008643 3.16952847 6.22237877 6.39937989 9 10 C8.67 10.66 8.34 11.32 8 12 C7.38125 11.505 6.7625 11.01 6.125 10.5 C4.16119096 8.80777227 4.16119096 8.80777227 2 9 C1.34 6.03 0.68 3.06 0 0 Z "
       fill="#98A6AB"
       transform="translate(348,35)"
       id="path46"
       style="fill:#24303a;fill-opacity:1" />
    <path
       d="M0 0 C0.33 0 0.66 0 1 0 C1 1.98 1 3.96 1 6 C-1.66666667 7.33333333 -4.33333333 8.66666667 -7 10 C-5.32971708 6.05205855 -2.8204435 3.18203882 0 0 Z "
       fill="#8D9B9D"
       transform="translate(373,44)"
       id="path48"
       style="fill:#24303a;fill-opacity:1" />
    <path
       d="M0 0 C2 2 2 2 2 6 C-0.97 5.505 -0.97 5.505 -4 5 C-2.68 3.35 -1.36 1.7 0 0 Z "
       fill="#182229"
       transform="translate(343,82)"
       id="path62"
       style="fill:#24303a;fill-opacity:1" />
    <path
       d="M0 0 C0 3.52032428 -0.70351351 4.4385343 -3 7 C-3.66 7 -4.32 7 -5 7 C-4.60196439 4.11424181 -4.20990931 3.17810487 -1.9375 1.25 C-1.298125 0.8375 -0.65875 0.425 0 0 Z "
       fill="#152227"
       transform="translate(323,108)"
       id="path66"
       style="fill:#24303a;fill-opacity:1" />
    <path
       d="M0 0 C1.98 0.495 1.98 0.495 4 1 C3.67 1.99 3.34 2.98 3 4 C2.01 4.33 1.02 4.66 0 5 C-0.33 4.01 -0.66 3.02 -1 2 C-0.67 1.34 -0.34 0.68 0 0 Z "
       fill="#243339"
       transform="translate(305,28)"
       id="path68"
       style="fill:#24303a;fill-opacity:1" />
  </g>
</svg>
